<svg width="674" height="902" viewBox="0 0 674 902" fill="none" xmlns="http://www.w3.org/2000/svg">
<path d="M337 0C426.378 0 512.095 35.5098 575.295 98.7168C638.495 161.924 674 247.651 674 337.039C672.964 403.525 655.673 468.747 623.638 527.014C591.625 585.238 546.928 637.514 491.402 674H187.744C186.468 673.103 185.149 672.206 183.785 671.311C128.204 634.821 82.3977 585.28 50.3623 527.014C18.327 468.747 1.03645 403.525 0 337.039C8.32124e-05 247.651 35.5055 161.924 98.7051 98.7168C161.905 35.5098 247.622 2.02078e-06 337 0Z" fill="white"/>
<line x1="182.727" y1="661.981" x2="277.836" y2="786.354" stroke="#1E313C" stroke-width="12"/>
<line x1="228.149" y1="663.499" x2="323.258" y2="787.873" stroke="#1E313C" stroke-width="7"/>
<rect x="222.643" y="780.799" width="229.767" height="116.03" rx="30.354" fill="#1E313C" stroke="#1E313C" stroke-width="9.29204"/>
<path d="M491.809 664.522L398.048 786.16" stroke="#1E313C" stroke-width="12"/>
<line y1="-3.5" x2="156.571" y2="-3.5" transform="matrix(-0.60745 0.794358 0.794358 0.60745 451.065 665.625)" stroke="#1E313C" stroke-width="7"/>
<ellipse cx="339.106" cy="664.522" rx="160.075" ry="32.6469" fill="#1E313C"/>
</svg>
