<svg width="114" height="143" viewBox="0 0 114 143" fill="none" xmlns="http://www.w3.org/2000/svg">
<path d="M113.689 47.1939C113.507 48.8273 113.045 50.4255 112.717 52.0354C112.699 52.2763 112.687 52.5231 112.669 52.764C112.644 52.9461 112.62 53.1224 112.596 53.2928C111.405 57.864 109.51 62.1473 107.195 66.3014C101.855 75.8729 94.6371 84.1046 87.535 92.4304C83.5981 97.0427 79.7099 101.696 75.8035 106.332C75.2506 106.226 74.7038 106.132 74.151 106.027C73.8897 105.938 73.6346 105.862 73.3733 105.774C73.1546 105.609 72.9481 105.327 72.6989 105.292C68.9687 104.769 65.2263 104.276 61.4838 103.776C57.2615 103.859 53.0512 103.941 48.8289 104.023H46.9212C46.903 104.135 46.8908 104.24 46.8786 104.352C47.1278 104.423 47.3829 104.499 47.632 104.575C46.6478 104.705 45.6636 104.84 44.6733 104.969C44.4303 104.998 44.1812 105.028 43.9382 105.057C43.9443 105.057 43.9443 105.063 43.9504 105.063C42.2917 105.621 40.6332 106.174 38.9685 106.726L38.9442 106.702C38.768 106.743 38.5919 106.79 38.4096 106.832C36.265 104.158 34.1204 101.491 31.9697 98.8231H31.9758C31.9758 98.8172 31.9758 98.8172 31.9758 98.8113C31.9758 98.8113 31.9758 98.8172 31.9697 98.8172C31.5444 98.3236 31.1131 97.836 30.6878 97.3483C28.3367 94.6338 25.9794 91.9192 23.6222 89.2047C23.6222 89.2047 23.4703 88.9638 23.3974 88.8991C23.3974 88.8991 22.4982 87.8063 22.4375 87.8004C22.4375 87.8004 21.1556 86.2316 20.5237 85.4501C20.4994 85.4208 20.4751 85.3972 20.4508 85.3679C20.4873 85.3091 20.5116 85.2504 20.5419 85.1916C20.4994 85.2327 20.4508 85.268 20.4083 85.3091C20.3961 85.315 20.3901 85.3267 20.3779 85.3326C18.0389 82.3243 15.6999 79.3218 13.3609 76.3076H13.3669C13.1969 76.0609 13.0085 75.82 12.8262 75.5732C12.8262 75.5732 12.3949 74.1219 11.5686 73.8105C11.3864 73.5578 11.198 73.2993 11.0158 73.0408C7.86875 68.6928 5.19557 64.0805 3.20288 59.1273C1.01572 53.7041 -0.138585 48.0811 0.0133002 42.2348C0.0315161 41.4945 0.153021 40.7601 0.219848 40.0197C0.232013 39.8493 0.244179 39.6848 0.256295 39.5203C0.511485 38.022 0.766645 36.5237 1.0218 35.0254C1.60505 33.1864 2.18826 31.3414 2.77151 29.4965C6.6233 20.6654 12.7472 13.6851 21.0827 8.49693C21.429 8.31479 21.7874 8.12676 22.1398 7.93877L22.1337 7.92113C22.4861 7.68609 22.8445 7.45108 23.203 7.21605V7.25718C23.2941 7.18079 23.3913 7.11029 23.4885 7.03978C23.5189 6.98104 23.5614 6.96928 23.6222 7.00453C25.7364 6.01155 27.8506 5.02445 29.9648 4.03735C29.9648 4.04322 29.9648 4.04322 29.9648 4.0491C31.1617 3.6378 32.3646 3.20886 33.5675 2.79171C33.6526 2.77406 33.7377 2.75646 33.8227 2.73293C37.638 1.28755 44.8009 0.294568 47.9175 0.78222C46.6235 1.63419 45.3538 2.46856 44.084 3.31465C44.1083 3.29113 44.1326 3.26764 44.1508 3.23826C44.1083 3.23826 44.0475 3.24999 43.9868 3.26175C44.005 3.29113 44.0111 3.32638 44.0232 3.35575C44.0232 3.36163 44.0293 3.36752 44.0293 3.37339C43.033 4.44864 42.0366 5.53563 41.0281 6.61675C40.8094 6.92815 40.5907 7.23957 40.3659 7.55096C35.2565 16.288 34.3027 25.8066 34.8555 35.5601C35.1289 40.29 35.7243 44.9964 36.1799 49.7145C36.2407 50.3197 36.3257 50.9249 36.4047 51.5183C37.2006 55.5255 37.9357 59.5444 38.8106 63.5281C39.4667 66.5482 40.293 69.5271 41.0402 72.5296C42.2675 76.6719 43.4704 80.826 44.728 84.9566C45.378 87.1071 46.1253 89.2223 46.8422 91.3493C46.9273 91.5902 47.1156 91.784 47.2675 92.0073L47.2796 92.0014C46.8422 89.851 46.4291 87.7005 45.9673 85.5559C44.9588 80.873 43.926 76.2019 42.9054 71.5249C41.423 63.0229 39.8434 54.5326 38.4886 46.0188C37.2917 38.4685 37.2675 30.8596 37.9722 23.2624C38.0937 22.005 38.4704 20.7711 38.7316 19.5255C40.0074 12.8978 42.3404 6.82239 48.3003 2.6918C49.2177 2.05726 50.3355 1.66356 51.3562 1.15238C55.1047 -0.32825 58.835 -0.475141 62.5592 1.25818L62.5349 1.24054C62.7232 1.32869 62.8994 1.41092 63.0817 1.49906L63.0574 1.48142C63.2396 1.57545 63.4158 1.65772 63.5981 1.75171L63.5738 1.73411C63.756 1.82221 63.9383 1.91037 64.1145 1.99848L64.0902 1.98087C64.2785 2.07487 64.4607 2.16301 64.6491 2.25701C65.0622 2.52142 65.4754 2.78584 65.8824 3.04436C66.1497 3.27353 66.411 3.49679 66.6783 3.72591C67.6625 4.59553 68.6406 5.46512 69.6188 6.3347L69.7038 6.42285C69.801 6.55797 69.9043 6.68726 70.0136 6.82827C70.1109 6.96339 70.2202 7.1044 70.3296 7.24541C72.5228 10.0187 73.9201 13.1857 74.6309 16.5524C75.2992 19.6959 75.5787 22.9158 75.9675 26.1121C76.1315 27.487 76.1315 28.8854 76.2044 30.272C76.5082 36.3004 76.0343 42.2877 75.0805 48.2397C74.1631 53.5396 71.9881 64.8972 71.8302 65.2732C71.7512 65.6199 70.1777 73.3522 69.7402 75.5262C69.4972 76.2841 69.2603 77.048 69.0173 77.8059L69.0294 77.7824C68.428 80.5734 67.8265 83.3702 67.2068 86.1611C67.1339 86.4901 67.0671 86.8133 66.9942 87.1423L66.9395 87.3597L66.9334 87.3656L66.0829 90.7382V90.75C65.9492 91.4022 65.8095 92.0485 65.6758 92.7006C65.7791 92.7359 65.8763 92.7653 65.9796 92.8064C66.1254 92.4656 66.2955 92.1248 66.4049 91.7723C68.3126 85.8849 70.2202 79.9858 72.1279 74.0866C72.1825 73.8928 72.2919 73.7106 72.377 73.5167C73.7865 67.5177 75.2263 61.5245 76.6115 55.5138C77.0003 53.8157 77.2069 52.0883 77.535 50.3843C77.62 49.9731 77.857 48.2691 77.8934 48.0576C79.1267 40.0609 79.5945 32.0347 78.7804 23.9675C78.6224 22.3164 78.3247 20.6771 78.0878 19.0378C77.1097 14.7663 75.8339 10.6004 73.2761 6.91638C71.496 4.34289 69.1631 2.38041 66.3016 0.835116H68.4827C71.8545 0.929112 75.1899 1.2523 78.3794 2.43331C79.2178 2.7447 80.0805 2.98558 80.9311 3.26175C80.9979 3.25587 81.0647 3.25587 81.1316 3.27352C81.2713 3.32638 81.3989 3.37927 81.5326 3.42626C81.5872 3.45566 81.6358 3.47327 81.6905 3.49679V3.49092C81.6784 3.48503 81.6784 3.47915 81.6723 3.47327C85.3053 4.47213 88.6529 6.07617 91.8485 7.99163C96.6784 10.8883 100.986 14.3432 104.473 18.6853C104.631 18.8733 104.783 19.0731 104.935 19.267C105.749 20.3892 106.557 21.5115 107.371 22.6279H107.383C110.415 27.1227 112.401 31.976 113.282 37.317C113.829 40.6308 114.054 43.8918 113.689 47.1939Z" fill="white"/>
<path d="M72.0694 112.628C71.4461 113.901 70.8227 115.174 70.1994 116.447L70.188 116.436C70.1202 114.848 70.8367 113.615 72.041 112.602L72.0694 112.628Z" fill="#1E313C"/>
<path d="M75.8633 106.173C74.5995 108.324 73.3357 110.476 72.0719 112.627L72.0435 112.601C72.151 112.07 72.1416 111.481 72.3873 111.019C73.2074 109.476 74.3329 108.066 74.4472 106.24C74.8153 106.189 75.2913 106.961 75.5537 106.104C75.6569 106.127 75.7601 106.15 75.8633 106.173Z" fill="#1E313C"/>
<path d="M45.0759 119.006C45.7593 120.446 46.5068 121.861 47.1085 123.332C47.7251 124.84 48.2117 126.399 48.7118 127.949C48.7528 128.076 48.4606 128.303 48.3232 128.484C48.241 128.048 48.2296 127.585 48.066 127.18C45.2634 120.237 42.1038 113.455 38.2725 106.979L38.3691 106.994L38.467 106.993C39.7964 108.335 40.653 109.94 41.4239 111.632C42.5601 114.124 43.8509 116.551 45.0759 119.006Z" fill="#1E313C"/>
<path d="M38.4674 106.993L38.3695 106.995L38.2728 106.979C38.1343 106.747 37.9958 106.515 37.8574 106.283C38.0399 106.239 38.2223 106.195 38.4047 106.152C38.4256 106.432 38.4465 106.713 38.4674 106.993Z" fill="#1E313C"/>
<path d="M74.4478 106.24C74.3384 108.062 73.2084 109.472 72.3882 111.017C72.1452 111.481 72.1512 112.069 72.048 112.598C70.839 113.614 70.1281 114.848 70.195 116.434C70.0188 116.522 69.8426 116.616 69.6725 116.705C69.5814 116.793 69.4963 116.881 69.4113 116.969C69.4113 117.051 69.4052 117.134 69.3991 117.222C69.3141 117.304 69.229 117.392 69.15 117.474C69.1439 117.562 69.1378 117.645 69.1318 117.733C69.0467 117.815 68.9678 117.903 68.8827 117.986C68.8037 118.238 68.7247 118.497 68.6457 118.749H66.7563C66.5862 118.826 66.4161 118.896 66.246 118.973C66.1549 118.973 66.0577 118.967 65.9605 118.967C65.4623 118.89 64.958 118.749 64.4538 118.755C60.7296 118.814 56.9993 118.902 53.2751 118.978C53.1232 118.902 52.9713 118.773 52.8134 118.767C50.8996 118.673 48.9798 118.597 47.06 118.538C47.0236 118.538 46.9749 118.843 46.9324 119.008H45.0794C43.8522 116.552 42.5642 114.125 41.4281 111.634C40.6565 109.942 39.7999 108.332 38.4694 106.992C38.4451 106.71 38.4269 106.434 38.4087 106.152L38.433 106.175C38.8643 106.123 39.32 106.146 39.7149 105.999C44.2532 104.342 49.0467 104.26 53.7793 103.96C58.9859 103.625 64.2107 103.943 69.3687 104.73C71.1002 104.994 72.7588 105.723 74.4478 106.24Z" fill="#1E313C"/>
<path d="M56.9767 120.533C64.3523 120.533 70.3313 118.242 70.3313 115.416C70.3313 112.59 64.3523 110.299 56.9767 110.299C49.6011 110.299 43.6221 112.59 43.6221 115.416C43.6221 118.242 49.6011 120.533 56.9767 120.533Z" fill="#1E313C"/>
<path d="M62.197 142.387H51.6605C48.9668 142.387 46.7832 140.275 46.7832 137.67V131.469C46.7832 128.864 48.9668 126.752 51.6605 126.752H62.197C64.8906 126.752 67.0743 128.864 67.0743 131.469V137.67C67.0743 140.275 64.8906 142.387 62.197 142.387Z" fill="#1E313C"/>
<path d="M45.4995 114.657L43.252 115.55L49.1508 129.425L51.3983 128.531L45.4995 114.657Z" fill="#1E313C"/>
<path d="M68.3369 114.761L62.4365 128.635L64.6839 129.529L70.5843 115.655L68.3369 114.761Z" fill="#1E313C"/>
<path d="M53.3556 115.767L52.1548 115.946L54.5209 130.772L55.7217 130.593L53.3556 115.767Z" fill="#1E313C"/>
<path d="M60.7021 115.727L58.3389 130.554L59.5397 130.733L61.9029 115.906L60.7021 115.727Z" fill="#1E313C"/>
<path d="M75.8606 106.133C75.8606 106.191 75.858 106.241 75.858 106.241C75.7831 106.534 75.1477 106.612 75.0582 106.626C73.8198 106.818 66.2517 111.96 56.8147 112.612C56.8147 112.612 48.5242 113.185 40.3608 108.551C38.2368 107.345 37.789 106.728 37.7688 106.133C37.671 103.247 47.5837 99.6538 56.8147 99.6538C67.3335 99.6538 75.8606 102.555 75.8606 106.133Z" fill="#1E313C"/>
</svg>
