<svg width="174" height="218" viewBox="0 0 174 218" fill="none" xmlns="http://www.w3.org/2000/svg">
<path d="M173.728 72.1166C173.45 74.6126 172.744 77.0548 172.243 79.5149C172.215 79.883 172.196 80.2601 172.168 80.6282C172.131 80.9066 172.094 81.1759 172.057 81.4363C170.237 88.4216 167.341 94.9669 163.804 101.315C155.643 115.941 144.614 128.52 133.762 141.242C127.746 148.29 121.804 155.401 115.835 162.485C114.99 162.324 114.154 162.18 113.31 162.018C112.91 161.884 112.52 161.767 112.121 161.632C111.787 161.381 111.471 160.95 111.091 160.896C105.391 160.097 99.6718 159.343 93.953 158.58C87.5008 158.705 81.0672 158.831 74.615 158.957H71.6999C71.6721 159.127 71.6535 159.289 71.6349 159.46C72.0156 159.567 72.4055 159.684 72.7861 159.801C71.2822 159.998 69.7782 160.205 68.265 160.402C67.8936 160.447 67.513 160.492 67.1416 160.537C67.1509 160.537 67.1509 160.546 67.1602 160.546C64.6257 161.399 62.0913 162.243 59.5475 163.087L59.5104 163.051C59.2412 163.114 58.972 163.186 58.6935 163.249C55.4163 159.163 52.1391 155.087 48.8527 151.011H48.862C48.862 151.002 48.862 151.002 48.862 150.993C48.862 150.993 48.862 151.002 48.8527 151.002C48.2028 150.248 47.5437 149.502 46.8938 148.757C43.301 144.609 39.6989 140.461 36.0969 136.313C36.0969 136.313 35.8648 135.945 35.7534 135.846C35.7534 135.846 34.3794 134.176 34.2865 134.167C34.2865 134.167 32.3277 131.77 31.3622 130.576C31.325 130.531 31.2879 130.495 31.2507 130.45C31.3065 130.36 31.3436 130.27 31.39 130.181C31.325 130.244 31.2507 130.297 31.1858 130.36C31.1672 130.369 31.1579 130.387 31.1393 130.396C27.5651 125.799 23.9909 121.211 20.4166 116.605H20.4259C20.166 116.228 19.8782 115.86 19.5997 115.483C19.5997 115.483 18.9406 113.265 17.6779 112.789C17.3994 112.403 17.1116 112.008 16.8331 111.613C12.0242 104.969 7.93932 97.9209 4.8943 90.352C1.55212 82.0648 -0.21177 73.4723 0.0203239 64.5388C0.0481595 63.4075 0.23383 62.2851 0.335948 61.1539C0.354537 60.8935 0.373127 60.6421 0.391642 60.3907C0.781597 58.1011 1.1715 55.8116 1.56141 53.5221C2.45266 50.7118 3.34387 47.8926 4.23512 45.0734C10.121 31.5786 19.479 20.9121 32.2163 12.9841C32.7454 12.7058 33.2932 12.4184 33.8316 12.1312L33.8223 12.1042C34.3608 11.7451 34.9085 11.3859 35.4563 11.0268V11.0896C35.5956 10.9729 35.7441 10.8652 35.8926 10.7574C35.939 10.6677 36.004 10.6497 36.0969 10.7036C39.3276 9.18621 42.5583 7.67782 45.7891 6.16944C45.7891 6.17842 45.7891 6.17842 45.7891 6.18741C47.6179 5.5589 49.4561 4.90343 51.2943 4.26599C51.4243 4.23903 51.5543 4.21212 51.6842 4.17618C57.5144 1.96749 68.4599 0.450127 73.2224 1.1953C71.245 2.4972 69.3047 3.77219 67.3644 5.06509C67.4016 5.02915 67.4387 4.99325 67.4665 4.94837C67.4016 4.94837 67.3087 4.96629 67.2159 4.98426C67.2437 5.02915 67.253 5.08301 67.2716 5.1279C67.2716 5.13689 67.2809 5.14588 67.2809 5.15485C65.7584 6.79794 64.2358 8.45895 62.6947 10.111C62.3605 10.5868 62.0263 11.0627 61.6828 11.5386C53.8752 24.8896 52.4177 39.4348 53.2625 54.3391C53.6802 61.5669 54.59 68.7586 55.2863 75.9684C55.3792 76.8932 55.5091 77.818 55.6298 78.7248C56.846 84.8482 57.9693 90.9894 59.3062 97.0769C60.3088 101.692 61.5714 106.244 62.7133 110.832C64.5886 117.162 66.4268 123.51 68.3485 129.822C69.3419 133.108 70.4837 136.34 71.5792 139.59C71.7092 139.958 71.997 140.255 72.2291 140.596L72.2477 140.587C71.5792 137.301 70.9479 134.014 70.2424 130.737C68.7013 123.581 67.123 116.444 65.5634 109.297C63.2981 96.3047 60.8844 83.3308 58.8141 70.3209C56.9852 58.7835 56.9481 47.1563 58.025 35.5471C58.2107 33.6257 58.7863 31.7402 59.1855 29.8368C61.135 19.7091 64.7 10.4252 73.8073 4.11332C75.2092 3.14368 76.9174 2.54208 78.4771 1.76095C84.2051 -0.501596 89.9053 -0.72606 95.5963 1.92262L95.5591 1.89565C95.8469 2.03036 96.1161 2.15602 96.3946 2.29071L96.3575 2.26375C96.636 2.40743 96.9052 2.53315 97.1837 2.67677L97.1466 2.64988C97.4251 2.78451 97.7036 2.91922 97.9729 3.05386L97.9357 3.02695C98.2235 3.17059 98.502 3.30528 98.7898 3.44892C99.4211 3.85296 100.052 4.25702 100.674 4.65207C101.083 5.00225 101.482 5.34342 101.891 5.69354C103.395 7.0224 104.889 8.35121 106.384 9.68001L106.514 9.8147C106.662 10.0212 106.82 10.2187 106.987 10.4342C107.136 10.6407 107.303 10.8562 107.47 11.0717C110.822 15.3096 112.957 20.149 114.043 25.2937C115.064 30.0971 115.491 35.0174 116.085 39.9017C116.336 42.0027 116.336 44.1395 116.447 46.2585C116.912 55.4704 116.188 64.6195 114.73 73.7148C113.328 81.8134 110.005 99.1689 109.763 99.7435C109.642 100.273 107.238 112.089 106.57 115.411C106.198 116.569 105.836 117.736 105.465 118.895L105.483 118.859C104.564 123.124 103.645 127.397 102.698 131.662C102.587 132.165 102.485 132.659 102.373 133.162L102.29 133.494L102.28 133.503L100.981 138.656V138.674C100.777 139.671 100.563 140.659 100.359 141.655C100.517 141.709 100.665 141.754 100.823 141.817C101.046 141.296 101.306 140.775 101.473 140.237C104.388 131.24 107.303 122.226 110.218 113.211C110.302 112.915 110.469 112.637 110.599 112.34C112.753 103.173 114.953 94.0152 117.069 84.8302C117.664 82.2354 117.979 79.5957 118.481 76.992C118.611 76.3635 118.973 73.7597 119.028 73.4364C120.913 61.2167 121.628 48.952 120.384 36.6245C120.142 34.1016 119.687 31.5966 119.325 29.0915C117.831 22.5642 115.881 16.1984 111.973 10.5689C109.253 6.63633 105.688 3.63749 101.315 1.27613H104.648C109.8 1.41977 114.897 1.91363 119.771 3.71832C121.052 4.19415 122.37 4.56224 123.67 4.98426C123.772 4.97527 123.874 4.97527 123.977 5.00224C124.19 5.08301 124.385 5.16384 124.589 5.23564C124.673 5.28057 124.747 5.30748 124.831 5.34342V5.33444C124.812 5.32546 124.812 5.31646 124.803 5.30748C130.354 6.83383 135.47 9.28496 140.353 12.212C147.734 16.6384 154.316 21.9177 159.645 28.5529C159.886 28.8402 160.118 29.1454 160.35 29.4417C161.594 31.1567 162.829 32.8715 164.073 34.5775H164.092C168.724 41.446 171.76 48.8623 173.106 57.0238C173.942 62.0876 174.285 67.0707 173.728 72.1166Z" fill="white"/>
<path d="M110.128 172.106C109.176 174.051 108.223 175.997 107.271 177.942L107.253 177.925C107.15 175.499 108.245 173.614 110.085 172.066L110.128 172.106Z" fill="#1E313C"/>
<path d="M115.926 162.242C113.995 165.53 112.064 168.817 110.133 172.105L110.089 172.065C110.254 171.254 110.239 170.354 110.615 169.647C111.868 167.289 113.588 165.134 113.763 162.344C114.325 162.267 115.052 163.446 115.453 162.137C115.611 162.172 115.769 162.207 115.926 162.242Z" fill="#1E313C"/>
<path d="M68.8802 181.852C69.9245 184.052 71.0668 186.215 71.9861 188.463C72.9284 190.768 73.672 193.15 74.4362 195.517C74.4988 195.712 74.0522 196.059 73.8423 196.336C73.7167 195.669 73.6993 194.962 73.4493 194.343C69.1667 183.734 64.3385 173.371 58.4839 163.474L58.6316 163.497L58.7811 163.495C60.8126 165.546 62.1215 167.999 63.2996 170.584C65.0358 174.393 67.0083 178.101 68.8802 181.852Z" fill="#1E313C"/>
<path d="M58.7821 163.496L58.6326 163.498L58.4849 163.475C58.2732 163.119 58.0616 162.764 57.8501 162.41C58.1289 162.343 58.4076 162.276 58.6864 162.21C58.7184 162.639 58.7502 163.067 58.7821 163.496Z" fill="#1E313C"/>
<path d="M113.763 162.345C113.596 165.128 111.87 167.283 110.616 169.644C110.245 170.354 110.254 171.252 110.096 172.06C108.249 173.613 107.163 175.498 107.265 177.923C106.996 178.057 106.726 178.201 106.466 178.336C106.327 178.47 106.197 178.605 106.067 178.74C106.067 178.865 106.058 178.991 106.049 179.126C105.919 179.251 105.789 179.386 105.668 179.512C105.659 179.647 105.649 179.772 105.64 179.907C105.51 180.033 105.389 180.167 105.259 180.293C105.139 180.679 105.018 181.074 104.897 181.46H102.01C101.75 181.577 101.49 181.685 101.23 181.801C101.091 181.801 100.943 181.792 100.794 181.792C100.033 181.676 99.2622 181.46 98.4917 181.469C92.8007 181.559 87.1005 181.694 81.4096 181.81C81.1775 181.694 80.9454 181.496 80.704 181.487C77.7797 181.343 74.846 181.227 71.9124 181.137C71.8567 181.137 71.7824 181.604 71.7174 181.855H68.8859C67.0106 178.102 65.0424 174.394 63.3064 170.587C62.1273 168.001 60.8183 165.541 58.7852 163.494C58.7481 163.063 58.7202 162.641 58.6924 162.21L58.7295 162.246C59.3886 162.165 60.0849 162.201 60.6883 161.977C67.6233 159.445 74.9482 159.319 82.1802 158.861C90.1363 158.349 98.1203 158.834 106.002 160.037C108.648 160.441 111.183 161.555 113.763 162.345Z" fill="#1E313C"/>
<path d="M87.0663 184.186C98.3368 184.186 107.473 180.686 107.473 176.367C107.473 172.049 98.3368 168.548 87.0663 168.548C75.7958 168.548 66.6592 172.049 66.6592 176.367C66.6592 180.686 75.7958 184.186 87.0663 184.186Z" fill="#1E313C"/>
<path d="M95.043 217.581H78.9422C74.826 217.581 71.4893 214.354 71.4893 210.373V200.897C71.4893 196.917 74.826 193.689 78.9422 193.689H95.043C99.1591 193.689 102.496 196.917 102.496 200.897V210.373C102.496 214.354 99.1591 217.581 95.043 217.581Z" fill="#1E313C"/>
<path d="M69.5282 175.206L66.0938 176.572L75.1077 197.774L78.5422 196.408L69.5282 175.206Z" fill="#1E313C"/>
<path d="M104.426 175.365L95.4092 196.566L98.8434 197.932L107.86 176.731L104.426 175.365Z" fill="#1E313C"/>
<path d="M81.5327 176.902L79.6978 177.176L83.3133 199.832L85.1483 199.558L81.5327 176.902Z" fill="#1E313C"/>
<path d="M92.7577 176.842L89.1465 199.498L90.9815 199.772L94.5927 177.115L92.7577 176.842Z" fill="#1E313C"/>
<path d="M115.922 162.181C115.922 162.269 115.918 162.346 115.918 162.346C115.803 162.794 114.832 162.913 114.696 162.934C112.803 163.228 101.239 171.085 86.8179 172.082C86.8179 172.082 74.1492 172.957 61.6748 165.876C58.4292 164.033 57.7448 163.091 57.714 162.181C57.5645 157.77 72.712 152.28 86.8179 152.28C102.892 152.28 115.922 156.713 115.922 162.181Z" fill="#1E313C"/>
</svg>
